<svg width="14" height="14" viewBox="0 0 14 14" fill="none" xmlns="http://www.w3.org/2000/svg">
<g id="icons / arrow-right-5">
<path id="Vector (Stroke)" fill-rule="evenodd" clip-rule="evenodd" d="M7.10915 1.32632C7.49325 0.957894 8.11359 0.957894 8.49768 1.32632L13.7092 6.32524C14.097 6.69716 14.097 7.30282 13.7092 7.67474L8.49781 12.6737C8.30512 12.8583 8.05345 12.95 7.80355 12.95C7.55366 12.95 7.30196 12.8584 7.10931 12.6737C6.72157 12.3018 6.72154 11.6961 7.10928 11.3242L10.6257 7.95107H0.985066C0.447142 7.95107 3.05176e-05 7.53108 3.05176e-05 6.99999C3.05176e-05 6.46883 0.447151 6.04891 0.985066 6.04891H10.6257L7.10915 2.67582C6.72141 2.30389 6.72141 1.69824 7.10915 1.32632Z" fill="#381DDB"/>
</g>
</svg>
