<svg width="118" height="24" viewBox="0 0 118 24" fill="none" xmlns="http://www.w3.org/2000/svg">
<g clip-path="url(#clip0_116_1359)">
<path d="M1.184 18V6.64H6.208C6.73067 6.64 7.21067 6.74667 7.648 6.96C8.096 7.17333 8.48 7.46133 8.8 7.824C9.13067 8.18667 9.38133 8.592 9.552 9.04C9.73333 9.488 9.824 9.94667 9.824 10.416C9.824 10.896 9.73867 11.36 9.568 11.808C9.408 12.2453 9.17333 12.6293 8.864 12.96C8.55467 13.2907 8.192 13.5467 7.776 13.728L10.368 18H7.936L5.6 14.192H3.392V18H1.184ZM3.392 12.256H6.16C6.43733 12.256 6.68267 12.176 6.896 12.016C7.10933 11.8453 7.28 11.6213 7.408 11.344C7.536 11.0667 7.6 10.7573 7.6 10.416C7.6 10.0533 7.52533 9.73867 7.376 9.472C7.22667 9.19467 7.03467 8.976 6.8 8.816C6.576 8.656 6.33067 8.576 6.064 8.576H3.392V12.256ZM15.2234 18.16C14.5514 18.16 13.9434 18.048 13.3994 17.824C12.8554 17.5893 12.3914 17.2747 12.0074 16.88C11.6234 16.4747 11.3247 16.016 11.1114 15.504C10.9087 14.9813 10.8074 14.432 10.8074 13.856C10.8074 13.056 10.9834 12.3253 11.3354 11.664C11.698 11.0027 12.21 10.4747 12.8714 10.08C13.5434 9.67467 14.3327 9.472 15.2394 9.472C16.1567 9.472 16.9407 9.67467 17.5914 10.08C18.242 10.4747 18.738 11.0027 19.0794 11.664C19.4314 12.3147 19.6074 13.0187 19.6074 13.776C19.6074 13.904 19.602 14.0373 19.5914 14.176C19.5807 14.304 19.57 14.4107 19.5594 14.496H13.0794C13.122 14.9227 13.2447 15.296 13.4474 15.616C13.6607 15.936 13.9274 16.1813 14.2474 16.352C14.578 16.512 14.93 16.592 15.3034 16.592C15.73 16.592 16.13 16.4907 16.5034 16.288C16.8874 16.0747 17.1487 15.7973 17.2874 15.456L19.1274 15.968C18.9247 16.3947 18.6314 16.7733 18.2474 17.104C17.874 17.4347 17.4314 17.696 16.9194 17.888C16.4074 18.0693 15.842 18.16 15.2234 18.16ZM13.0314 13.136H17.4154C17.3727 12.7093 17.25 12.3413 17.0474 12.032C16.8554 11.712 16.5994 11.4667 16.2794 11.296C15.9594 11.1147 15.602 11.024 15.2074 11.024C14.8234 11.024 14.4714 11.1147 14.1514 11.296C13.842 11.4667 13.586 11.712 13.3834 12.032C13.1914 12.3413 13.074 12.7093 13.0314 13.136ZM20.3375 15.52C20.3375 14.976 20.4868 14.5013 20.7855 14.096C21.0948 13.68 21.5215 13.36 22.0655 13.136C22.6095 12.912 23.2335 12.8 23.9375 12.8C24.2895 12.8 24.6468 12.8267 25.0095 12.88C25.3722 12.9333 25.6868 13.0187 25.9535 13.136V12.688C25.9535 12.1547 25.7935 11.744 25.4735 11.456C25.1642 11.168 24.7002 11.024 24.0815 11.024C23.6228 11.024 23.1855 11.104 22.7695 11.264C22.3535 11.424 21.9162 11.6587 21.4575 11.968L20.7695 10.56C21.3242 10.1973 21.8895 9.92533 22.4655 9.744C23.0522 9.56267 23.6655 9.472 24.3055 9.472C25.5002 9.472 26.4282 9.77067 27.0895 10.368C27.7615 10.9653 28.0975 11.8187 28.0975 12.928V15.6C28.0975 15.824 28.1348 15.984 28.2095 16.08C28.2948 16.176 28.4282 16.2347 28.6095 16.256V18C28.4175 18.032 28.2415 18.0587 28.0815 18.08C27.9322 18.1013 27.8042 18.112 27.6975 18.112C27.2708 18.112 26.9455 18.016 26.7215 17.824C26.5082 17.632 26.3748 17.3973 26.3215 17.12L26.2735 16.688C25.9108 17.1573 25.4575 17.52 24.9135 17.776C24.3695 18.032 23.8148 18.16 23.2495 18.16C22.6948 18.16 22.1935 18.048 21.7455 17.824C21.3082 17.5893 20.9615 17.2747 20.7055 16.88C20.4602 16.4747 20.3375 16.0213 20.3375 15.52ZM25.5535 15.952C25.6708 15.824 25.7668 15.696 25.8415 15.568C25.9162 15.44 25.9535 15.3227 25.9535 15.216V14.368C25.6975 14.2613 25.4202 14.1813 25.1215 14.128C24.8228 14.064 24.5402 14.032 24.2735 14.032C23.7188 14.032 23.2602 14.1547 22.8975 14.4C22.5455 14.6347 22.3695 14.9493 22.3695 15.344C22.3695 15.5573 22.4282 15.76 22.5455 15.952C22.6628 16.144 22.8335 16.2987 23.0575 16.416C23.2815 16.5333 23.5482 16.592 23.8575 16.592C24.1775 16.592 24.4922 16.5333 24.8015 16.416C25.1108 16.288 25.3615 16.1333 25.5535 15.952ZM29.589 13.808C29.589 12.9973 29.749 12.2667 30.069 11.616C30.389 10.9547 30.8317 10.432 31.397 10.048C31.9623 9.664 32.6077 9.472 33.333 9.472C33.9517 9.472 34.5063 9.62667 34.997 9.936C35.4983 10.2347 35.8877 10.6187 36.165 11.088V6.32H38.309V15.6C38.309 15.824 38.3463 15.984 38.421 16.08C38.4957 16.176 38.6237 16.2347 38.805 16.256V18C38.4317 18.0747 38.1277 18.112 37.893 18.112C37.509 18.112 37.189 18.016 36.933 17.824C36.6877 17.632 36.549 17.3813 36.517 17.072L36.485 16.544C36.1757 17.0667 35.7543 17.4667 35.221 17.744C34.6983 18.0213 34.149 18.16 33.573 18.16C32.997 18.16 32.4637 18.048 31.973 17.824C31.493 17.6 31.0717 17.2907 30.709 16.896C30.357 16.5013 30.0797 16.0427 29.877 15.52C29.685 14.9867 29.589 14.416 29.589 13.808ZM36.165 14.928V12.928C36.0583 12.6187 35.8877 12.3413 35.653 12.096C35.4183 11.8507 35.157 11.6587 34.869 11.52C34.581 11.3707 34.293 11.296 34.005 11.296C33.6743 11.296 33.3757 11.3653 33.109 11.504C32.8423 11.6427 32.6077 11.8293 32.405 12.064C32.213 12.2987 32.0637 12.5707 31.957 12.88C31.861 13.1893 31.813 13.5147 31.813 13.856C31.813 14.1973 31.8663 14.5227 31.973 14.832C32.0903 15.1307 32.2557 15.392 32.469 15.616C32.6823 15.84 32.9277 16.016 33.205 16.144C33.493 16.272 33.8023 16.336 34.133 16.336C34.3357 16.336 34.5383 16.304 34.741 16.24C34.9543 16.1653 35.1517 16.0693 35.333 15.952C35.525 15.824 35.6903 15.6747 35.829 15.504C35.9783 15.3227 36.0903 15.1307 36.165 14.928ZM57.2813 18H55.1373V13.296C55.1373 12.6347 55.0199 12.1493 54.7853 11.84C54.5613 11.52 54.2466 11.36 53.8413 11.36C53.4253 11.36 53.0253 11.5253 52.6413 11.856C52.2679 12.176 52.0013 12.5973 51.8413 13.12V18H49.6973V13.296C49.6973 12.624 49.5799 12.1333 49.3453 11.824C49.1213 11.5147 48.8066 11.36 48.4013 11.36C47.9853 11.36 47.5853 11.52 47.2013 11.84C46.8279 12.16 46.5613 12.5813 46.4013 13.104V18H44.2573V9.616H46.1933V11.168C46.5133 10.624 46.9399 10.208 47.4733 9.92C48.0066 9.62133 48.6199 9.472 49.3133 9.472C50.0066 9.472 50.5453 9.64267 50.9293 9.984C51.3239 10.3253 51.5746 10.7467 51.6813 11.248C52.0226 10.672 52.4546 10.2347 52.9773 9.936C53.5106 9.62667 54.1079 9.472 54.7693 9.472C55.2919 9.472 55.7133 9.568 56.0333 9.76C56.3639 9.94133 56.6199 10.192 56.8013 10.512C56.9826 10.8213 57.1053 11.1733 57.1693 11.568C57.2439 11.9627 57.2813 12.3627 57.2813 12.768V18ZM63.0199 18.16C62.3372 18.16 61.7239 18.048 61.1799 17.824C60.6359 17.5893 60.1719 17.2693 59.7879 16.864C59.4145 16.4587 59.1265 15.9947 58.9239 15.472C58.7212 14.9493 58.6199 14.4 58.6199 13.824C58.6199 13.2373 58.7212 12.6827 58.9239 12.16C59.1265 11.6373 59.4145 11.1733 59.7879 10.768C60.1719 10.3627 60.6359 10.048 61.1799 9.824C61.7239 9.58933 62.3372 9.472 63.0199 9.472C63.7025 9.472 64.3105 9.58933 64.8439 9.824C65.3879 10.048 65.8519 10.3627 66.2359 10.768C66.6199 11.1733 66.9079 11.6373 67.0999 12.16C67.3025 12.6827 67.4039 13.2373 67.4039 13.824C67.4039 14.4 67.3025 14.9493 67.0999 15.472C66.9079 15.9947 66.6199 16.4587 66.2359 16.864C65.8625 17.2693 65.4039 17.5893 64.8599 17.824C64.3159 18.048 63.7025 18.16 63.0199 18.16ZM60.8279 13.824C60.8279 14.3147 60.9239 14.752 61.1159 15.136C61.3079 15.5093 61.5692 15.8027 61.8999 16.016C62.2305 16.2293 62.6039 16.336 63.0199 16.336C63.4252 16.336 63.7932 16.2293 64.1239 16.016C64.4545 15.792 64.7159 15.4933 64.9079 15.12C65.1105 14.736 65.2119 14.2987 65.2119 13.808C65.2119 13.328 65.1105 12.896 64.9079 12.512C64.7159 12.128 64.4545 11.8293 64.1239 11.616C63.7932 11.4027 63.4252 11.296 63.0199 11.296C62.6039 11.296 62.2305 11.408 61.8999 11.632C61.5692 11.8453 61.3079 12.144 61.1159 12.528C60.9239 12.9013 60.8279 13.3333 60.8279 13.824ZM73.843 11.472C73.1923 11.472 72.611 11.6 72.099 11.856C71.587 12.1013 71.219 12.4587 70.995 12.928V18H68.851V9.616H70.819V11.408C71.1177 10.832 71.4963 10.3787 71.955 10.048C72.4137 9.71733 72.899 9.536 73.411 9.504C73.5283 9.504 73.619 9.504 73.683 9.504C73.747 9.504 73.8003 9.50933 73.843 9.52V11.472ZM78.8171 18.16C78.1451 18.16 77.5371 18.048 76.9931 17.824C76.4491 17.5893 75.9851 17.2747 75.6011 16.88C75.2171 16.4747 74.9185 16.016 74.7051 15.504C74.5025 14.9813 74.4011 14.432 74.4011 13.856C74.4011 13.056 74.5771 12.3253 74.9291 11.664C75.2918 11.0027 75.8038 10.4747 76.4651 10.08C77.1371 9.67467 77.9265 9.472 78.8331 9.472C79.7505 9.472 80.5345 9.67467 81.1851 10.08C81.8358 10.4747 82.3318 11.0027 82.6731 11.664C83.0251 12.3147 83.2011 13.0187 83.2011 13.776C83.2011 13.904 83.1958 14.0373 83.1851 14.176C83.1745 14.304 83.1638 14.4107 83.1531 14.496H76.6731C76.7158 14.9227 76.8385 15.296 77.0411 15.616C77.2545 15.936 77.5211 16.1813 77.8411 16.352C78.1718 16.512 78.5238 16.592 78.8971 16.592C79.3238 16.592 79.7238 16.4907 80.0971 16.288C80.4811 16.0747 80.7425 15.7973 80.8811 15.456L82.7211 15.968C82.5185 16.3947 82.2251 16.7733 81.8411 17.104C81.4678 17.4347 81.0251 17.696 80.5131 17.888C80.0011 18.0693 79.4358 18.16 78.8171 18.16ZM76.6251 13.136H81.0091C80.9665 12.7093 80.8438 12.3413 80.6411 12.032C80.4491 11.712 80.1931 11.4667 79.8731 11.296C79.5531 11.1147 79.1958 11.024 78.8011 11.024C78.4171 11.024 78.0651 11.1147 77.7451 11.296C77.4358 11.4667 77.1798 11.712 76.9771 12.032C76.7851 12.3413 76.6678 12.7093 76.6251 13.136Z" fill="#FFA3A3"/>
<path fill-rule="evenodd" clip-rule="evenodd" d="M96 12C96 17.5228 100.477 22 106 22C111.523 22 116 17.5228 116 12C116 6.47715 111.523 2 106 2C100.477 2 96 6.47715 96 12ZM94 12C94 18.6274 99.3726 24 106 24C112.627 24 118 18.6274 118 12C118 5.37258 112.627 -2.34843e-07 106 -5.24537e-07C99.3726 -8.1423e-07 94 5.37258 94 12Z" fill="#FFA3A3"/>
<path d="M101.802 9.42814C102.218 8.99062 102.903 8.99065 103.319 9.42832L106 12.2505L108.681 9.42842C109.097 8.99087 109.782 8.99066 110.198 9.42834C110.6 9.85162 110.6 10.5279 110.198 10.9511L106.758 14.5719C106.554 14.7874 106.279 14.9 106 14.9C105.721 14.9 105.446 14.7872 105.241 14.5717L101.802 10.951C101.399 10.5278 101.399 9.85141 101.802 9.42814Z" fill="#FFA3A3"/>
</g>
<defs>
<clipPath id="clip0_116_1359">
<rect width="118" height="24" fill="white"/>
</clipPath>
</defs>
</svg>
