<svg width="70" height="526" viewBox="0 0 70 526" fill="none" xmlns="http://www.w3.org/2000/svg">
<path opacity="0.05" d="M0 0H70V526H0V0Z" fill="#381DDB"/>
<g opacity="0.3" clip-path="url(#clip0_157_2008)">
<path opacity="0.3" fill-rule="evenodd" clip-rule="evenodd" d="M2.97354 49.8044L5.5637 57.7771H13.9471L7.16523 62.7044L9.75539 70.678L2.97354 65.7506L-3.80831 70.678L-1.21815 62.7044L-8 57.7771H0.383387L2.97354 49.8044Z" stroke="#222222" stroke-width="2" stroke-linecap="round" stroke-linejoin="round"/>
<g opacity="0.3">
<path d="M66.9731 139.37C67.9927 139.37 68.8192 138.544 68.8192 137.524C68.8192 136.505 67.9927 135.678 66.9731 135.678C65.9535 135.678 65.127 136.505 65.127 137.524C65.127 138.544 65.9535 139.37 66.9731 139.37Z" fill="#222222"/>
<path d="M61.436 139.37C62.4556 139.37 63.2822 138.544 63.2822 137.524C63.2822 136.505 62.4556 135.678 61.436 135.678C60.4164 135.678 59.5898 136.505 59.5898 137.524C59.5898 138.544 60.4164 139.37 61.436 139.37Z" fill="#222222"/>
<path d="M55.8969 139.37C56.9165 139.37 57.7431 138.544 57.7431 137.524C57.7431 136.505 56.9165 135.678 55.8969 135.678C54.8773 135.678 54.0508 136.505 54.0508 137.524C54.0508 138.544 54.8773 139.37 55.8969 139.37Z" fill="#222222"/>
</g>
<rect opacity="0.3" x="25.1289" y="204.37" width="14.7692" height="14.7692" rx="7.38461" stroke="#222222" stroke-width="2"/>
<g opacity="0.3">
<path d="M18.0512 299.986C19.0708 299.986 19.8974 299.159 19.8974 298.139C19.8974 297.12 19.0708 296.293 18.0512 296.293C17.0316 296.293 16.2051 297.12 16.2051 298.139C16.2051 299.159 17.0316 299.986 18.0512 299.986Z" fill="#222222"/>
<path d="M6.97311 299.986C7.99271 299.986 8.81926 299.159 8.81926 298.139C8.81926 297.12 7.99271 296.293 6.97311 296.293C5.9535 296.293 5.12695 297.12 5.12695 298.139C5.12695 299.159 5.9535 299.986 6.97311 299.986Z" fill="#222222"/>
</g>
</g>
<defs>
<clipPath id="clip0_157_2008">
<rect width="70" height="250" fill="white" transform="translate(0 49.8044)"/>
</clipPath>
</defs>
</svg>
