<svg width="17" height="17" viewBox="0 0 17 17" fill="none" xmlns="http://www.w3.org/2000/svg">
<path fill-rule="evenodd" clip-rule="evenodd" d="M14.1077 12.7322C14.1077 13.1208 13.791 13.4375 13.4023 13.4375H11.9916V6.38391H13.4023C13.791 6.38391 14.1077 6.70062 14.1077 7.08928V12.7322ZM2.82191 12.7322V7.08928C2.82191 6.70062 3.13861 6.38391 3.52727 6.38391H4.93799V13.4375H3.52727C3.13861 13.4375 2.82191 13.1208 2.82191 12.7322ZM7.05408 3.91506C7.05408 3.72038 7.21209 3.56237 7.40677 3.56237H9.52286C9.71754 3.56237 9.87554 3.72038 9.87554 3.91506V4.9731H7.05408V3.91506ZM6.34863 13.4375H10.5808V6.38391H6.34863V13.4375ZM13.4023 4.97331H11.2862V3.91526C11.2862 2.94327 10.4948 2.15186 9.52281 2.15186H7.40672C6.43473 2.15186 5.64331 2.94327 5.64331 3.91526V4.97331H3.52722C2.36055 4.97331 1.41113 5.92273 1.41113 7.0894V12.7323C1.41113 13.899 2.36055 14.8484 3.52722 14.8484H13.4023C14.569 14.8484 15.5184 13.899 15.5184 12.7323V7.0894C15.5184 5.92273 14.569 4.97331 13.4023 4.97331Z" fill="#FF5959"/>
</svg>
